<?xml version="1.0" encoding="UTF-8"?> <svg xmlns="http://www.w3.org/2000/svg" width="58" height="80" viewBox="0 0 58 80" fill="none"> <path d="M0.824844 62.7687C1.05687 63.4577 1.8037 63.8284 2.49265 63.5959L41.5038 50.4337C41.8926 50.3025 41.9449 49.7741 41.5894 49.5692C41.5568 49.5504 41.5221 49.5355 41.4858 49.525L40.7281 49.3022C39.3288 48.8909 37.8369 48.9199 36.4548 49.3853L1.65216 61.1021C0.963355 61.3339 0.593034 62.0798 0.824844 62.7687Z" fill="#468FD3"></path> <path d="M0.824844 62.7687C1.05687 63.4577 1.8037 63.8284 2.49265 63.5959L41.5038 50.4337C41.8926 50.3025 41.9449 49.7741 41.5894 49.5692C41.5568 49.5504 41.5221 49.5355 41.4858 49.525L40.7281 49.3022C39.3288 48.8909 37.8369 48.9199 36.4548 49.3853L1.65216 61.1021C0.963355 61.3339 0.593034 62.0798 0.824844 62.7687Z" fill="url(#paint0_linear_1133_58)"></path> <path d="M3.22301 78.2393C3.22301 78.955 2.64285 79.5352 1.92718 79.5352C1.21151 79.5352 0.631348 78.955 0.631348 78.2393L0.631348 62.4014C0.631348 61.6857 1.21151 61.1055 1.92718 61.1055C2.64285 61.1055 3.22301 61.6857 3.22301 62.4014L3.22301 78.2393Z" fill="#468FD3"></path> <path d="M2.67177 79.5551C1.94968 79.8006 1.16526 79.4143 0.919708 78.6922C0.674156 77.9701 1.06046 77.1857 1.78255 76.9402L51.1238 60.1613C51.8458 59.9157 52.6303 60.3021 52.8758 61.0241C53.1214 61.7462 52.7351 62.5307 52.013 62.7762L2.67177 79.5551Z" fill="#468FD3"></path> <path d="M0.441455 40.6019C0.425905 41.283 0.744683 41.9286 1.29491 42.3304L50.8538 54.7476L51.585 51.8293L2.27636 39.4748C1.8298 39.3628 1.4517 39.0669 1.23587 38.6603L1.00457 37.8457L0.619489 39.0596L0.526478 39.4769C0.482564 39.6742 0.458089 39.8753 0.453481 40.0774L0.441455 40.6019Z" fill="#468FD3"></path> <path d="M54.8429 1.56927C54.8429 0.853602 55.4231 0.273438 56.1387 0.273438C56.8544 0.273438 57.4346 0.853602 57.4346 1.56927V18.847C57.4346 19.5627 56.8544 20.1429 56.1387 20.1429C55.4231 20.1429 54.8429 19.5627 54.8429 18.847V1.56927Z" fill="#468FD3"></path> <path d="M55.4024 0.434552C56.1085 0.194459 56.8755 0.572188 57.1156 1.27823C57.3557 1.98428 56.9779 2.75127 56.2719 2.99137L5.67058 20.1985C4.96453 20.4386 4.19753 20.0609 3.95744 19.3549C3.71735 18.6488 4.09508 17.8818 4.80112 17.6417L55.4024 0.434552Z" fill="#468FD3"></path> <path d="M57.223 18.5016C56.9946 17.8232 56.2593 17.4586 55.5811 17.6875L19.0462 30.0154C18.665 30.144 18.6079 30.6593 18.9516 30.8683C18.9837 30.8879 19.018 30.9035 19.0539 30.9149L19.7503 31.1368C21.0859 31.5623 22.5223 31.5505 23.8507 31.1033L56.4086 20.1425C57.0866 19.9143 57.4512 19.1796 57.223 18.5016Z" fill="#468FD3"></path> <path d="M57.223 18.5016C56.9946 17.8232 56.2593 17.4586 55.5811 17.6875L19.0462 30.0154C18.665 30.144 18.6079 30.6593 18.9516 30.8683C18.9837 30.8879 19.018 30.9035 19.0539 30.9149L19.7503 31.1368C21.0859 31.5623 22.5223 31.5505 23.8507 31.1033L56.4086 20.1425C57.0866 19.9143 57.4512 19.1796 57.223 18.5016Z" fill="url(#paint1_linear_1133_58)"></path> <path d="M57.304 39.6364C57.3125 38.9498 56.9823 38.3029 56.4211 37.9071L6.10008 25.2988L5.39227 28.1239L55.4773 40.673C55.9204 40.784 56.2982 41.0726 56.5219 41.4708L56.7651 42.2642L57.1416 41.09L57.2288 40.6962C57.2726 40.4984 57.2959 40.2965 57.2984 40.0939L57.304 39.6364Z" fill="#468FD3"></path> <path d="M0.7998 34.4913L1.61943 31.306C1.63654 31.2395 1.67429 31.1883 1.73263 31.1524C1.79097 31.1164 1.85338 31.1071 1.91987 31.1242L2.67206 31.3177C2.73178 31.3331 2.78873 31.3732 2.84295 31.4381C2.89719 31.5029 2.93709 31.5742 2.96262 31.6516L3.89631 34.426L4.50924 32.0442C4.52637 31.9776 4.56386 31.9273 4.62175 31.8931C4.68135 31.8593 4.74445 31.851 4.81094 31.8681L5.25102 31.9814C5.31751 31.9985 5.36785 32.036 5.4021 32.0939C5.43801 32.1522 5.44693 32.2164 5.42894 32.2863L4.60934 35.4716C4.59225 35.538 4.55367 35.589 4.49362 35.6245C4.4357 35.6587 4.3735 35.6672 4.30695 35.6501L3.45758 35.4316C3.39102 35.4144 3.32874 35.3739 3.27063 35.3098C3.21303 35.2441 3.17228 35.1726 3.14846 35.0957L2.29848 32.5364L1.73367 34.7316C1.71654 34.7981 1.67796 34.8491 1.61791 34.8846C1.56003 34.9188 1.49779 34.9273 1.43124 34.9102L0.981005 34.7944C0.91445 34.7772 0.863249 34.7395 0.82737 34.6811C0.791902 34.6211 0.782669 34.5578 0.7998 34.4913ZM8.76401 36.3933C8.33746 36.6091 7.78648 36.6301 7.11106 36.4562C6.43737 36.2829 5.96494 35.9985 5.69384 35.6033C5.42319 35.2063 5.37327 34.6761 5.54396 34.0126C5.71466 33.3491 6.01417 32.9097 6.44238 32.6943C6.87059 32.479 7.42157 32.458 8.09526 32.6314C8.77068 32.8052 9.24315 33.0895 9.51248 33.4843C9.78358 33.8796 9.83379 34.409 9.66303 35.0725C9.49234 35.736 9.19266 36.1763 8.76401 36.3933ZM8.67513 33.8444C8.55556 33.5955 8.30303 33.4213 7.91753 33.3222C7.53378 33.2234 7.22853 33.254 7.00195 33.4139C6.77703 33.5742 6.61228 33.8574 6.50783 34.2633C6.40384 34.6675 6.41162 34.9942 6.53119 35.2432C6.653 35.4909 6.90569 35.6642 7.28953 35.7629C7.675 35.8621 7.97997 35.8324 8.20448 35.6737C8.4294 35.5134 8.59382 35.2311 8.69787 34.8269C8.8023 34.4209 8.79471 34.0934 8.67513 33.8444ZM13.5559 37.9127C13.5371 37.986 13.4841 38.0115 13.3971 37.9892L12.7831 37.8312C12.7183 37.8145 12.6526 37.773 12.586 37.7068C12.5215 37.6393 12.4773 37.567 12.4535 37.49L12.1937 36.6975C12.0866 36.3717 11.906 36.1761 11.6519 36.1107L11.0276 35.9501L10.7445 37.0502C10.7274 37.1167 10.6888 37.1677 10.6287 37.2032C10.5708 37.2374 10.5086 37.2459 10.4421 37.2288L9.96111 37.1051C9.89462 37.088 9.84339 37.0502 9.80748 36.9918C9.77201 36.9318 9.76284 36.8686 9.77997 36.802L10.5996 33.6167C10.6167 33.5502 10.6544 33.499 10.7127 33.4631C10.7711 33.4272 10.8336 33.4178 10.9 33.4349L13.0108 33.978C13.4013 34.0785 13.6942 34.2657 13.8892 34.5396C14.086 34.8139 14.1385 35.1293 14.0467 35.4858C13.9191 35.9821 13.5174 36.2106 12.8419 36.1714C12.9346 36.2353 13.0126 36.3244 13.0759 36.4389C13.1396 36.5517 13.2053 36.7096 13.2732 36.9125L13.5486 37.7717C13.5635 37.8265 13.566 37.8735 13.5559 37.9127ZM11.2139 35.226L12.3038 35.5065C12.4795 35.5516 12.6428 35.5564 12.7938 35.5207C12.9466 35.4855 13.0427 35.3911 13.0822 35.2376C13.1217 35.084 13.0831 34.955 12.9663 34.8504C12.8513 34.7463 12.7059 34.6716 12.5302 34.6263L11.4404 34.3459L11.2139 35.226ZM14.0155 37.8973L14.8351 34.7121C14.853 34.6421 14.8921 34.5894 14.9521 34.554C15.0122 34.5185 15.0755 34.5093 15.1419 34.5264L16.5721 34.8944C17.3124 35.0849 17.8123 35.3718 18.072 35.755C18.3337 36.137 18.3832 36.6444 18.2204 37.2771C18.058 37.9082 17.77 38.3278 17.3564 38.536C16.9444 38.7446 16.3684 38.7537 15.6281 38.5632L14.1979 38.1952C14.1314 38.1781 14.08 38.1412 14.0436 38.0846C14.0077 38.0262 13.9984 37.9638 14.0155 37.8973ZM15.1057 37.6568L15.7862 37.8319C16.2451 37.95 16.5787 37.9467 16.7871 37.8222C16.9956 37.6976 17.1519 37.4332 17.2558 37.029C17.3603 36.623 17.3513 36.3152 17.2289 36.1054C17.1069 35.894 16.8165 35.7292 16.3577 35.6112L15.6772 35.4361L15.1057 37.6568ZM18.7836 35.6926C18.7804 35.67 18.782 35.6458 18.7886 35.6202C18.7957 35.5929 18.818 35.566 18.8558 35.5393C18.8957 35.5114 18.9455 35.5051 19.0052 35.5205L19.5655 35.6647C19.632 35.6818 19.6875 35.7206 19.7319 35.7812C19.7764 35.8417 19.8016 35.91 19.8074 35.9861L19.9614 38.1861L21.1071 36.3205C21.1983 36.1712 21.3206 36.1163 21.4741 36.1558L21.9449 36.2769C22.0984 36.3164 22.179 36.4235 22.1868 36.5983L22.2896 38.7852L23.4865 36.9327C23.5283 36.8689 23.5834 36.8213 23.6515 36.7897C23.7196 36.7582 23.787 36.7509 23.8535 36.768L24.4138 36.9121C24.4717 36.9271 24.5106 36.9562 24.5304 36.9995C24.5523 37.0415 24.5598 37.0761 24.5528 37.1035C24.5462 37.129 24.5369 37.1512 24.5247 37.1699L22.5621 40.0692C22.4542 40.227 22.3091 40.2823 22.1265 40.2354L21.7555 40.1399C21.5662 40.0912 21.4667 39.9728 21.4568 39.7848L21.3395 37.6542L20.2083 39.4636C20.1073 39.623 19.963 39.6787 19.7754 39.6304L19.4018 39.5343C19.221 39.4877 19.1214 39.3694 19.1031 39.1792L18.7836 35.6926ZM24.1291 40.4888L24.9487 37.3035C24.9658 37.237 25.0042 37.1868 25.0638 37.1531C25.1233 37.1193 25.1864 37.111 25.253 37.1281L28.2028 37.8871C28.2694 37.9043 28.3195 37.9426 28.3532 38.0022C28.3887 38.0623 28.3979 38.1256 28.3808 38.1921L28.3189 38.4326C28.3018 38.4991 28.2632 38.5501 28.2031 38.5856C28.1453 38.6198 28.083 38.6283 28.0165 38.6112L25.7881 38.0378L25.5965 38.7823L27.5154 39.276C27.5819 39.2931 27.6321 39.3315 27.6658 39.3911C27.7017 39.4495 27.7111 39.5119 27.694 39.5784L27.6321 39.8189C27.615 39.8854 27.5764 39.9364 27.5164 39.9719C27.4585 40.0061 27.3963 40.0146 27.3297 39.9975L25.4109 39.5038L25.2167 40.2586L27.44 40.8306C27.5048 40.8473 27.5543 40.8845 27.5885 40.9425C27.6227 41.0004 27.6313 41.0626 27.6141 41.1291L27.5509 41.3747C27.5338 41.4413 27.4952 41.4923 27.4352 41.5277C27.3756 41.5615 27.3125 41.5698 27.246 41.5527L24.3089 40.7969C24.2424 40.7798 24.1912 40.7421 24.1553 40.6838C24.1198 40.6237 24.111 40.5587 24.1291 40.4888ZM28.0019 40.7461C28.0278 40.6454 28.076 40.5815 28.1467 40.5542C28.2178 40.5252 28.2815 40.5179 28.3378 40.5325L28.6422 40.6108C28.7957 40.6503 28.8911 40.7639 28.9282 40.9517C28.9654 41.1395 29.1238 41.2693 29.4035 41.3413L30.2944 41.5897C30.5946 41.6669 30.7699 41.6074 30.8204 41.4113C30.8585 41.2629 30.7053 41.0989 30.3605 40.9193C30.2069 40.8379 30.0359 40.7529 29.8478 40.6645C29.66 40.5744 29.4755 40.4751 29.2943 40.3666C29.1147 40.2586 28.9532 40.1444 28.8096 40.0237C28.6661 39.9031 28.5607 39.7614 28.4935 39.5987C28.4284 39.4346 28.4198 39.2596 28.4676 39.0737C28.5559 38.7309 28.7456 38.4988 29.0369 38.3773C29.3287 38.2541 29.7721 38.2692 30.3674 38.4223L31.0133 38.6049C31.363 38.6948 31.6544 38.8662 31.8876 39.119C32.1229 39.3705 32.206 39.631 32.1366 39.9005C32.1107 40.0012 32.0622 40.0659 31.9911 40.0949C31.92 40.1239 31.8572 40.1314 31.8025 40.1174L31.4981 40.039C31.3446 39.9995 31.2493 39.8859 31.2121 39.6981C31.1754 39.5086 31.0172 39.3778 30.7375 39.3059L29.9713 39.0924C29.6711 39.0151 29.4958 39.0746 29.4453 39.2708C29.4177 39.3782 29.4897 39.4904 29.6615 39.6073C29.835 39.7247 30.0496 39.8445 30.3055 39.9667C30.5636 40.0877 30.8196 40.2199 31.0736 40.3635C31.3277 40.5071 31.5276 40.6877 31.6734 40.9052C31.8215 41.1215 31.8633 41.355 31.7987 41.6058C31.7105 41.9486 31.5197 42.1814 31.2263 42.3041C30.935 42.4255 30.4925 42.4099 29.899 42.2571L29.1277 42.0423C28.778 41.9523 28.4856 41.7816 28.2502 41.5301C28.0153 41.2769 27.9325 41.0155 28.0019 40.7461ZM32.4815 39.5037L32.5433 39.2632C32.5613 39.1933 32.5993 39.1412 32.6573 39.107C32.7151 39.0728 32.779 39.0647 32.8489 39.0827L36.0956 39.9181C36.1656 39.9361 36.2177 39.9741 36.2518 40.0319C36.286 40.0898 36.2941 40.1538 36.2762 40.2237L36.2142 40.4642C36.1962 40.5341 36.1583 40.5862 36.1004 40.6204C36.043 40.6529 35.9793 40.6601 35.9093 40.6421L34.7683 40.3485L34.0711 43.0579C34.054 43.1244 34.0156 43.1746 33.956 43.2083C33.8985 43.2408 33.8365 43.2485 33.77 43.2314L33.2864 43.107C33.22 43.0899 33.1686 43.053 33.1322 42.9964C33.098 42.9385 33.0895 42.8763 33.1066 42.8098L33.8037 40.1003L32.6627 39.8067C32.5927 39.7887 32.5404 39.7517 32.5058 39.6954C32.4716 39.6375 32.4635 39.5736 32.4815 39.5037ZM36.3192 40.4912L36.381 40.2507C36.399 40.1807 36.437 40.1287 36.4948 40.0945C36.5528 40.0603 36.6167 40.0522 36.6866 40.0702L39.9333 40.9056C40.0032 40.9236 40.0553 40.9615 40.0895 41.0194C40.1237 41.0774 40.1318 41.1413 40.1138 41.2112L40.0519 41.4517C40.0339 41.5216 39.996 41.5737 39.9381 41.6079C39.8806 41.6404 39.8169 41.6476 39.747 41.6296L38.606 41.336L37.9087 44.0454C37.8916 44.1119 37.8533 44.1621 37.7936 44.1958C37.7362 44.2283 37.6742 44.236 37.6077 44.2189L37.1241 44.0945C37.0576 44.0774 37.0062 44.0405 36.9699 43.9838C36.9356 43.9259 36.9271 43.8637 36.9442 43.7972L37.6414 41.0878L36.5004 40.7942C36.4304 40.7762 36.3781 40.7391 36.3435 40.6829C36.3093 40.625 36.3011 40.5611 36.3192 40.4912ZM43.4897 45.6151C43.4709 45.6885 43.4179 45.714 43.331 45.6916L42.7169 45.5336C42.6521 45.5169 42.5864 45.4754 42.5198 45.4092C42.4553 45.3417 42.4112 45.2694 42.3873 45.1924L42.1275 44.3999C42.0204 44.0741 41.8398 43.8785 41.5857 43.8131L40.9614 43.6525L40.6783 44.7526C40.6612 44.8191 40.6226 44.8701 40.5625 44.9056C40.5046 44.9398 40.4425 44.9483 40.3759 44.9312L39.8949 44.8075C39.8284 44.7904 39.7772 44.7526 39.7413 44.6942C39.7058 44.6342 39.6967 44.571 39.7138 44.5044L40.5334 41.3191C40.5505 41.2526 40.5882 41.2014 40.6466 41.1655C40.7049 41.1296 40.7674 41.1202 40.8339 41.1373L42.9446 41.6804C43.3351 41.7809 43.628 41.9681 43.823 42.242C44.0198 42.5163 44.0723 42.8317 43.9806 43.1882C43.8529 43.6845 43.4512 43.913 42.7758 43.8738C42.8684 43.9377 42.9464 44.0268 43.0097 44.1413C43.0734 44.2541 43.1392 44.412 43.207 44.6149L43.4824 45.4741C43.4974 45.5289 43.4999 45.5759 43.4897 45.6151ZM41.1477 42.9284L42.2376 43.2089C42.4133 43.254 42.5766 43.2588 42.7276 43.2231C42.8804 43.1879 42.9765 43.0935 43.0161 42.94C43.0555 42.7864 43.0169 42.6574 42.9002 42.5528C42.7851 42.4487 42.6398 42.374 42.464 42.3287L41.3742 42.0484L41.1477 42.9284ZM43.6473 45.522L44.9162 43.2517C45.261 42.6329 45.9128 42.446 46.8718 42.691L48.2508 43.0458C48.3139 43.062 48.3598 43.0993 48.3884 43.1576C48.4188 43.2164 48.4259 43.2773 48.4096 43.3404L47.5874 46.5358C47.5702 46.6024 47.5319 46.6525 47.4723 46.6863C47.4131 46.7183 47.3503 46.7258 47.2837 46.7087L46.8027 46.5849C46.7328 46.5669 46.6805 46.5298 46.6459 46.4737C46.6134 46.4162 46.6062 46.3525 46.6242 46.2825L46.7901 45.6378L44.971 45.1698L44.6337 45.7704C44.5986 45.8359 44.5453 45.8841 44.4738 45.9148C44.4027 45.9437 44.3339 45.9496 44.2673 45.9325L43.7633 45.8028C43.6968 45.7857 43.6539 45.7547 43.6346 45.7097C43.6156 45.663 43.6099 45.6252 43.6174 45.5962C43.6265 45.5676 43.6366 45.5429 43.6473 45.522ZM45.3466 44.4944L46.9763 44.9138L47.32 43.5783L46.5909 43.3906C46.4271 43.3485 46.2718 43.3586 46.1248 43.4208C45.98 43.4817 45.8661 43.5851 45.7831 43.7311L45.3466 44.4944ZM48.3204 46.719L49.14 43.5337C49.1571 43.4672 49.1948 43.416 49.2532 43.3801C49.3115 43.3442 49.374 43.3348 49.4405 43.3519L50.1927 43.5455C50.2524 43.5608 50.3094 43.6009 50.3636 43.6659C50.4178 43.7307 50.4577 43.8019 50.4832 43.8794L51.4169 46.6538L52.0298 44.2719C52.0469 44.2054 52.0844 44.155 52.1423 44.1208C52.2019 44.087 52.265 44.0787 52.3315 44.0958L52.7716 44.2091C52.8381 44.2262 52.8885 44.2637 52.9227 44.3216C52.9586 44.3799 52.9675 44.4441 52.9495 44.514L52.1299 47.6993C52.1128 47.7658 52.0742 47.8168 52.0142 47.8523C51.9563 47.8865 51.894 47.895 51.8276 47.8779L50.9781 47.6593C50.9117 47.6422 50.8493 47.6016 50.7913 47.5376C50.7336 47.4718 50.6929 47.4004 50.669 47.3234L49.8191 44.7641L49.2542 46.9593C49.2371 47.0258 49.1985 47.0768 49.1385 47.1123C49.0806 47.1465 49.0184 47.155 48.9519 47.1379L48.5016 47.0221C48.435 47.0049 48.3838 46.9672 48.3479 46.9089C48.3124 46.8488 48.3033 46.7856 48.3204 46.719ZM52.8341 47.1358C52.86 47.0352 52.9083 46.9712 52.979 46.9439C53.0501 46.9149 53.1137 46.9077 53.1701 46.9221L53.4745 47.0005C53.628 47.04 53.7233 47.1536 53.7605 47.3414C53.7976 47.5292 53.9561 47.659 54.2358 47.731L55.1267 47.9794C55.4268 48.0566 55.6022 47.9972 55.6527 47.801C55.6908 47.6526 55.5376 47.4886 55.1928 47.3089C55.0391 47.2276 54.8682 47.1427 54.68 47.0543C54.4922 46.9641 54.3078 46.8648 54.1265 46.7564C53.947 46.6483 53.7855 46.534 53.6419 46.4135C53.4984 46.2929 53.393 46.1512 53.3258 45.9883C53.2607 45.8243 53.252 45.6493 53.2999 45.4635C53.3881 45.1206 53.5779 44.8885 53.8692 44.767C54.1609 44.6439 54.6044 44.6588 55.1997 44.812L55.8456 44.9946C56.1953 45.0846 56.4867 45.256 56.7198 45.5087C56.9552 45.7602 57.0382 46.0207 56.9689 46.2902C56.943 46.3908 56.8945 46.4557 56.8234 46.4846C56.7523 46.5136 56.6894 46.5211 56.6348 46.507L56.3304 46.4287C56.1769 46.3892 56.0816 46.2756 56.0444 46.0878C56.0077 45.8983 55.8494 45.7676 55.5698 45.6956L54.8036 45.4821C54.5034 45.4049 54.3281 45.4643 54.2776 45.6604C54.25 45.7679 54.322 45.8801 54.4938 45.997C54.6673 46.1145 54.8819 46.2342 55.1378 46.3564C55.3959 46.4774 55.6519 46.6097 55.9059 46.7532C56.16 46.8967 56.3599 47.0773 56.5057 47.2949C56.6538 47.5112 56.6956 47.7448 56.631 47.9955C56.5428 48.3383 56.352 48.5711 56.0586 48.6938C55.7672 48.8153 55.3248 48.7996 54.7312 48.6469L53.96 48.432C53.6103 48.3421 53.3178 48.1713 53.0825 47.9198C52.8475 47.6666 52.7648 47.4052 52.8341 47.1358Z" fill="#1F5280"></path> <path d="M4.1506 17.9119L4.54511 17.7313C4.82825 17.6216 5.14954 17.69 5.3635 17.9055L6.64126 19.1924C6.85594 19.4087 6.78287 19.7735 6.50146 19.8904L5.99752 20.1064L5.87837 20.1705C5.64656 20.2954 5.42908 20.4453 5.22996 20.6175L5.22643 20.6206L5.04581 20.8026C4.95121 20.8978 4.86417 21.0004 4.78556 21.1092L4.77764 21.1203C4.67073 21.2683 4.58074 21.4278 4.50918 21.5958L4.36578 21.9931L4.29645 22.2722C4.27097 22.3749 4.2534 22.4794 4.2439 22.5848C4.22957 22.7436 4.23368 22.9035 4.25607 23.0613L4.25823 23.0766C4.28206 23.2926 4.33043 23.5051 4.40256 23.7101L4.41373 23.7419L4.46743 23.8493C4.55144 24.0174 4.64856 24.1787 4.75784 24.3317L4.77368 24.3539L4.87122 24.4839C4.94998 24.5889 5.03904 24.6857 5.13716 24.7729C5.25436 24.8771 5.38366 24.9669 5.52231 25.0403L5.6601 25.1132C5.83669 25.2067 6.02149 25.2838 6.2122 25.3433L6.50146 25.4337L7.00539 25.5417L7.44972 25.6408L8.59718 25.9298L9.56538 26.1826C9.93477 26.2756 9.97422 26.7848 9.62355 26.9336L6.7265 28.1623C6.44005 28.2838 6.12221 28.3102 5.81963 28.2375L5.3856 28.1334L5.0471 28.0245L4.36578 27.7717L4.0072 27.5911L3.50513 27.2661L3.3204 27.1266C3.15698 27.0031 3.00444 26.8659 2.86434 26.7165L2.46523 26.2909L2.19979 25.9345C2.09001 25.7871 1.99174 25.6315 1.90571 25.4691L1.74805 25.1713L1.58564 24.7828C1.50278 24.5847 1.43792 24.3796 1.39163 24.17L1.24599 23.51L1.21014 23.1488V23.0043V22.5348L1.24599 22.2098V22.1014L1.28184 21.8486L1.31769 21.7042L1.35354 21.5235L1.38947 21.3791L1.53287 20.9096L1.67628 20.5484L1.85561 20.1872L2.10664 19.7539L2.35767 19.4288L2.6804 19.0315L3.00314 18.7065L3.39758 18.3814L3.79201 18.1286L4.1506 17.9119Z" fill="#468FD3"></path> <path d="M52.6943 62.5245L52.2998 62.7145C52.0189 62.829 51.6964 62.7592 51.4883 62.5382L50.2368 61.2106C50.0083 60.968 50.1024 60.5714 50.4154 60.4569L50.6284 60.3583C50.7981 60.2805 50.9611 60.1884 51.1156 60.0833C51.2486 59.9926 51.375 59.8925 51.4939 59.7845L51.6185 59.6708L51.7964 59.4822C51.8928 59.3799 51.9812 59.2705 52.0606 59.1546L52.0657 59.1467C52.1737 58.9897 52.2642 58.8206 52.3357 58.6435L52.4791 58.2252L52.5482 57.9322C52.5739 57.8235 52.5915 57.7133 52.601 57.6018C52.6153 57.4347 52.6113 57.2663 52.5889 57.1L52.5867 57.0841L52.5706 56.9301C52.5575 56.8048 52.5351 56.6803 52.5037 56.5586C52.4635 56.4017 52.4086 56.2498 52.3398 56.1035L52.2639 55.9427L52.2312 55.8819C52.1579 55.7459 52.0627 55.6228 51.9495 55.5177C51.8725 55.4462 51.7878 55.3836 51.6968 55.331L51.4392 55.1819L50.6144 54.8015L49.7538 54.4972L49.3952 54.383L48.2477 54.0787L47.2795 53.8124C46.8971 53.7109 46.8547 53.1851 47.2159 53.0238L50.0759 51.746C50.3891 51.6062 50.7403 51.5758 51.0728 51.6599L51.4593 51.7575L51.7978 51.8722L52.4791 52.1385L52.8377 52.3287L53.3398 52.6711L53.5282 52.8211C53.6891 52.9491 53.8388 53.0907 53.9756 53.2443L54.3797 53.6983L54.6543 54.0867C54.758 54.2333 54.8505 54.3874 54.9311 54.5478L55.0969 54.8776L55.2697 55.313C55.3456 55.5042 55.405 55.7016 55.4472 55.9029L55.5989 56.6277L55.6348 57.0078V57.1605V57.655L55.5989 57.997V58.1115L55.5631 58.3778L55.5272 58.5297L55.4914 58.7198L55.4554 58.8724L55.312 59.367L55.1686 59.7471L54.9893 60.1272L54.7383 60.5843L54.4872 60.9263L54.1645 61.3446L53.8418 61.6872L53.4473 62.0299L53.0529 62.2956L52.6943 62.5245Z" fill="#468FD3"></path> <path fill-rule="evenodd" clip-rule="evenodd" d="M51.9632 10.7692C52.4158 10.6183 52.9051 10.8629 53.056 11.3155C53.2069 11.7681 52.9623 12.2573 52.5097 12.4082L46.9779 14.2528C46.5253 14.4037 46.036 14.1591 45.8851 13.7064C45.7342 13.2538 45.9788 12.7646 46.4314 12.6137L51.9632 10.7692ZM41.0206 14.4407C41.4732 14.2898 41.9625 14.5344 42.1134 14.987C42.2644 15.4396 42.0197 15.9289 41.5671 16.0798L36.0353 17.9243C35.5827 18.0752 35.0934 17.8306 34.9425 17.378C34.7916 16.9254 35.0362 16.4361 35.4888 16.2852L41.0206 14.4407ZM31.0268 18.6585C30.8759 18.2059 30.3867 17.9613 29.9341 18.1123L24.4022 19.9567C23.9496 20.1076 23.705 20.5969 23.8559 21.0495C24.0069 21.5022 24.4961 21.7467 24.9487 21.5958L30.4806 19.7513C30.9332 19.6004 31.1778 19.1111 31.0268 18.6585ZM18.9195 21.7838C19.3721 21.6328 19.8613 21.8775 20.0122 22.3301C20.1632 22.7827 19.9186 23.2719 19.466 23.4228L13.9341 25.2674C13.4815 25.4182 12.9923 25.1737 12.8414 24.721C12.6904 24.2684 12.935 23.7792 13.3877 23.6283L18.9195 21.7838Z" fill="url(#paint2_linear_1133_58)"></path> <path fill-rule="evenodd" clip-rule="evenodd" d="M8.19044 69.3124C7.73783 69.4628 7.24858 69.2188 7.09769 68.7659C6.94672 68.3131 7.19135 67.8243 7.64395 67.6731L13.1758 65.8287C13.6284 65.6775 14.1176 65.9223 14.2686 66.3751C14.4195 66.8272 14.175 67.3168 13.7223 67.468L8.19044 69.3124ZM19.133 65.6408C18.6804 65.7913 18.1912 65.5472 18.0403 65.0944C17.8893 64.6416 18.1339 64.1528 18.5865 64.0016L24.1184 62.1572C24.571 62.006 25.0602 62.2508 25.2112 62.7036C25.3621 63.1557 25.1175 63.6452 24.6649 63.7964L19.133 65.6408ZM29.1268 61.4229C29.2777 61.8757 29.767 62.1198 30.2196 61.9693L35.7514 60.1249C36.2041 59.9737 36.4487 59.4842 36.2978 59.0321C36.1468 58.5793 35.6576 58.3345 35.205 58.4857L29.6731 60.3301C29.2205 60.4812 28.9759 60.9701 29.1268 61.4229ZM41.2342 58.2978C40.7816 58.4482 40.2923 58.2042 40.1414 57.7514C39.9905 57.2985 40.2351 56.8097 40.6877 56.6585L46.2195 54.8141C46.6721 54.6632 47.1614 54.9078 47.3124 55.3604C47.4632 55.813 47.2187 56.3022 46.766 56.4534L41.2342 58.2978Z" fill="url(#paint3_linear_1133_58)"></path> <defs> <linearGradient id="paint0_linear_1133_58" x1="37.1646" y1="50.5111" x2="1.80658" y2="62.1755" gradientUnits="userSpaceOnUse"> <stop stop-color="#1D4F7C"></stop> <stop offset="1" stop-color="#468FD3"></stop> </linearGradient> <linearGradient id="paint1_linear_1133_58" x1="20.1079" y1="30.3301" x2="56.2833" y2="18.1638" gradientUnits="userSpaceOnUse"> <stop stop-color="#1D4F7C"></stop> <stop offset="1" stop-color="#468FD3"></stop> </linearGradient> <linearGradient id="paint2_linear_1133_58" x1="53.1133" y1="10.7119" x2="12.0426" y2="24.6421" gradientUnits="userSpaceOnUse"> <stop stop-color="#468FD3"></stop> <stop offset="1" stop-color="#215685"></stop> </linearGradient> <linearGradient id="paint3_linear_1133_58" x1="7.04038" y1="69.3692" x2="48.1111" y2="55.4393" gradientUnits="userSpaceOnUse"> <stop stop-color="#468FD3"></stop> <stop offset="1" stop-color="#215685"></stop> </linearGradient> </defs> </svg> 